<?xml version="1.0" encoding="UTF-8" standalone="no"?>
<!-- Created with Inkscape (http://www.inkscape.org/) -->

<svg
   xmlns:dc="http://purl.org/dc/elements/1.1/"
   xmlns:cc="http://creativecommons.org/ns#"
   xmlns:rdf="http://www.w3.org/1999/02/22-rdf-syntax-ns#"
   xmlns:svg="http://www.w3.org/2000/svg"
   xmlns="http://www.w3.org/2000/svg"
   version="1.1"
   width="255"
   height="305"
   id="svg3058">
  <metadata
     id="metadata3091">
    <rdf:RDF>
      <cc:Work
         rdf:about="">
        <dc:format>image/svg+xml</dc:format>
        <dc:type
           rdf:resource="http://purl.org/dc/dcmitype/StillImage" />
        <dc:title></dc:title>
      </cc:Work>
    </rdf:RDF>
  </metadata>
  <defs
     id="defs3089" />
  <g
     id="layer1" />
  <g
     transform="matrix(1.3405326,0,0,1.3405326,-36.918129,-45.988743)"
     id="g3060">
    <title
       id="title3062">Layer 1</title>
    <rect
       width="1"
       height="0"
       x="322"
       y="323"
       id="svg_22"
       style="fill:#ff0000;stroke:#000000;stroke-width:5" />
    <rect
       width="3"
       height="0"
       x="416"
       y="284"
       id="svg_24"
       style="fill:#ff0000;stroke:#000000;stroke-width:5" />
    <g
       id="svg_25">
      <path
         d="m 42.028015,245.36499 c -0.718994,0 -1.221008,-0.539 -1.221008,-1.23999 v -11.36102 c 0,-0.72098 0.502014,-1.23999 1.221008,-1.23999 h 5.621002 c 2.621002,0 4.040985,1.77899 4.040985,3.82 0,0.9 -0.259979,1.779 -1.100006,2.51999 1.580017,0.62101 2.279022,1.84201 2.279022,3.32202 0,2.29899 -1.559021,4.18 -4.561005,4.18 h -6.279999 l 0,-0.001 z m 5.620972,-11.40198 h -4.221008 v 2.98001 h 4.221008 c 0.860992,0 1.399994,-0.539 1.399994,-1.6 0.001,-0.65903 -0.537994,-1.38001 -1.399994,-1.38001 m -4.220001,8.96298 h 4.881012 c 2.320007,0 2.320007,-3.54101 0,-3.54101 h -4.881012 v 3.54101 l 0,0 z"
         id="svg_2"
         style="fill:#ffffff" />
      <path
         d="m 53.908997,233.44299 c -0.960999,-1.281 1.199005,-2.89999 2.23999,-1.33999 l 3.5,5.221 3.541016,-5.221 c 1.061005,-1.461 3.281006,0 2.238983,1.33999 l -4.520996,6.54099 v 4.14102 c 0,1.76199 -2.640991,1.72098 -2.640991,-0.02 v -4.121 l -4.358002,-6.54099 z"
         id="svg_3"
         style="fill:#ffffff" />
      <path
         d="m 72.248993,234.02301 h -3.5 c -1.73999,0 -1.73999,-2.56101 0,-2.56101 h 9.460999 c 1.781006,0 1.781006,2.56101 0,2.56101 H 74.889985 V 244.125 c 0,1.74002 -2.640991,1.78101 -2.640991,0 v -10.10199 l 0,0 z"
         id="svg_4"
         style="fill:#ffffff" />
      <path
         d="m 83.669006,245.36499 c -0.700989,0 -1.23999,-0.539 -1.23999,-1.23999 v -11.36102 c 0,-0.72098 0.539001,-1.23999 1.23999,-1.23999 h 7.182007 c 1.839996,0 1.800995,2.6 0,2.6 H 85.08902 v 3 h 5.040985 c 1.781006,0 1.781006,2.62101 0,2.62101 H 85.08902 v 3.00198 h 6.10199 c 1.820007,0 1.960999,2.61902 0,2.61902 h -7.522003 l 0,-0.001 z"
         id="svg_5"
         style="fill:#ffffff" />
      <path
         d="m 95.009003,234.52301 c 0.458984,-3.88101 6.320007,-4.57999 9.081997,-2.461 1.35901,1.10199 -0.08,2.84201 -1.281,1.961 -1.48001,-0.939 -4.839998,-1.38101 -5.260012,0.699 -0.540985,3.28101 8.160002,1.4 8.021032,6.723 -0.14103,5.08001 -7.502019,5.20099 -10.264013,2.92001 -0.660004,-0.539 -0.639008,-1.42001 -0.278992,-1.961 0.519989,-0.52002 1.099976,-0.699 1.780975,-0.13901 1.638,1.11899 5.86102,1.95899 6.16,-0.88101 -0.259,-2.95999 -8.58099,-1.17901 -7.959987,-6.86099"
         id="svg_6"
         style="fill:#ffffff" />
      <path
         d="m 122.03,243.76599 c -1.06101,1.22101 -2.48001,1.92001 -4.021,1.92001 -3,0 -5.14099,-2.08001 -5.14099,-4.58001 0,-1.73999 1.06098,-3.32199 2.81998,-4.04099 -0.31998,-0.48001 -0.67999,-1.34002 -0.67999,-2.061 0,-2.461 1.73999,-3.88101 3.64099,-3.88101 2.52102,0 4.061,1.58001 4.061,4.04101 0,1.41998 -0.67999,2.801 -2.1,3.51999 l 1.42001,1.39999 0.93899,-1.5 c 0.94101,-1.38098 2.762,-0.08 1.922,1.18 -0.36099,0.621 -0.81998,1.281 -1.31998,2.082 L 125.03,243.285 c 1.281,1.461 -0.879,2.88099 -1.939,1.70099 l -1.061,-1.22 z m -4.021,-0.72098 c 0.84,0 1.54099,-0.33999 2.262,-1.039 -0.88098,-0.89999 -1.94101,-1.922 -2.801,-2.82199 -0.72101,0.18198 -1.781,0.38098 -1.961,1.922 0,1.23999 1.23999,1.93899 2.5,1.93899 m 0.48001,-6.26202 c 1.23999,0 1.62101,-1.05899 1.62101,-1.77899 0,-0.74002 -0.56101,-1.4 -1.262,-1.4 -0.68002,0 -1.199,0.65998 -1.199,1.4 -3e-5,0.72101 0.14099,1.22101 0.83999,1.77899"
         id="svg_7"
         style="fill:#ffffff" />
      <path
         d="m 132.92899,245.36499 c -0.641,-0.35901 -1.04099,-1.07999 -0.641,-1.92001 L 138.03,232.22 c 0.539,-1.05902 1.97998,-1.09802 2.47998,0 l 5.64102,11.22498 c 0.81998,1.561 -1.60001,2.80102 -2.32001,1.24002 l -0.88101,-1.76001 H 135.569 l -0.86102,1.76001 c -0.31998,0.67999 -1.05899,0.82101 -1.77899,0.67999 m 8.60101,-5.07999 -2.26001,-4.94101 -2.461,4.94101 H 141.53 l 0,0 z"
         id="svg_8"
         style="fill:#ffffff" />
      <path
         d="m 151.009,234.02301 h -3.50201 c -1.73999,0 -1.73999,-2.56101 0,-2.56101 H 156.97 c 1.77899,0 1.77899,2.56101 0,2.56101 h -3.32001 V 244.125 c 0,1.74002 -2.64099,1.78101 -2.64099,0 v -10.10199 l 0,0 z"
         id="svg_9"
         style="fill:#ffffff" />
      <path
         d="m 166.47,245.56601 c -3.70099,0.16 -7.54102,-2.301 -7.54102,-7.203 0,-4.91999 3.84003,-7.34 7.54102,-7.34 3.5,0.17999 7.16199,2.60001 7.16199,7.34 0,4.742 -3.66199,7.203 -7.16199,7.203 m -0.22101,-11.94302 c -2.23999,0 -4.67999,1.58001 -4.67999,4.73999 0,3.143 2.43899,4.742 4.67999,4.742 2.301,0 4.762,-1.59998 4.762,-4.742 0,-3.15998 -2.461,-4.73999 -4.762,-4.73999"
         id="svg_10"
         style="fill:#ffffff" />
      <path
         d="m 179.728,236.58401 v 7.40201 c 0,0.879 -0.719,1.379 -1.439,1.379 -0.64099,0 -1.20099,-0.5 -1.20099,-1.379 v -11.26401 c 0,-1.039 0.88098,-1.38101 1.20099,-1.38101 0.57999,0 0.92001,0.34201 1.26001,0.72101 l 4.40198,5.94101 4.561,-6.16 c 0.66001,-0.82001 2.279,-0.50202 2.279,0.879 v 11.264 c 0,0.879 -0.55899,1.379 -1.19898,1.379 -0.72101,0 -1.281,-0.5 -1.281,-1.379 v -7.402 l -3.32001,4.20101 c -0.72101,0.879 -1.621,0.879 -2.28101,0 l -2.98199,-4.20101 z"
         id="svg_11"
         style="fill:#ffffff" />
      <path
         d="m 194.327,234.52301 c 0.46099,-3.88101 6.32199,-4.57999 9.082,-2.461 1.36099,1.10199 -0.08,2.84201 -1.279,1.961 -1.48001,-0.939 -4.842,-1.38101 -5.26199,0.699 -0.539,3.28101 8.16199,1.4 8.021,6.723 -0.14102,5.08001 -7.50202,5.20099 -10.26199,2.92001 -0.66001,-0.539 -0.64103,-1.42001 -0.27903,-1.961 0.52002,-0.52002 1.10001,-0.699 1.77903,-0.13901 1.64099,1.11899 5.86099,1.95899 6.16198,-0.88101 -0.259,-2.95999 -8.58099,-1.17901 -7.962,-6.86099"
         id="svg_12"
         style="fill:#ffffff" />
      <rect
         width="6.0079999"
         height="6.0079999"
         x="132.196"
         y="115.262"
         id="svg_13"
         style="fill:#ffffff" />
      <path
         d="m 138.29401,133.358 v -6.069 h -6.068 v -6.069 h -6.06799 v -6.06801 H 120.09 V 109.431 c -10.69199,1.287 -18.986,10.375 -18.986,21.414 0,11.922 9.66202,21.586 21.58402,21.586 11.06998,0 20.17999,-8.33899 21.427,-19.07201 h -5.82101 l 0,-9.9e-4 z m -30.223,-6.13099 h 6.00901 v 6.011 h -6.00901 v -6.011 l 0,0 z m 6.00898,19.166 h -6.00901 V 140.383 h 6.00901 v 6.01001 l 0,0 z m 6.009,-7.14502 h -6.009 v -6.00901 h 6.009 v 6.00901 l 0,0 z m 6.008,-12.02099 h -6.008 v -6.00799 h 6.008 v 6.00799 l 0,0 z"
         id="svg_14"
         style="fill:#ffffff" />
      <circle
         cx="122.607"
         cy="130.92999"
         r="78.998001"
         id="svg_16"
         style="fill:none;stroke:#ffffff;stroke-width:3;stroke-miterlimit:10" />
      <path
         d="m 174.68301,130.92999 c 0,28.76099 -23.31201,52.073 -52.07599,52.073 -28.757014,0 -52.071986,-23.31201 -52.071986,-52.073 0,-28.76001 23.314972,-52.072003 52.071986,-52.072003 28.76297,1.5e-5 52.07599,23.312013 52.07599,52.072003 z"
         id="svg_15"
         style="fill:none;stroke:#ffffff;stroke-width:3;stroke-miterlimit:10" />
      <path
         d="m 52.029999,111.254 c 0,3.207 -2.600006,5.809 -5.80899,5.809 -3.208984,0 -5.809021,-2.602 -5.809021,-5.809 0,-3.209 2.600006,-5.81 5.809021,-5.81 3.209015,0 5.80899,2.601 5.80899,5.81"
         id="svg_17"
         style="fill:#ffffff" />
      <path
         d="m 153.13599,56.156998 c 0,3.207001 -2.60001,5.809998 -5.80899,5.809998 -3.20899,0 -5.80903,-2.602997 -5.80903,-5.809998 0,-3.207001 2.60001,-5.80899 5.80903,-5.80899 3.20901,0 5.80899,2.60199 5.80899,5.80899"
         id="svg_18"
         style="fill:#ffffff" />
      <path
         d="m 192.32901,177.19501 c 0,3.207 -2.60199,5.80899 -5.80899,5.80899 -3.20901,0 -5.80902,-2.60199 -5.80902,-5.80899 0,-3.207 2.60001,-5.80899 5.80902,-5.80899 3.20798,-3e-5 5.80899,2.60199 5.80899,5.80899"
         id="svg_19"
         style="fill:#ffffff" />
      <path
         d="m 101.103,86.927994 c 0,4.216003 -3.416995,7.634003 -7.631992,7.634003 -4.21402,0 -7.631012,-3.417999 -7.631012,-7.634003 0,-4.212997 3.416992,-7.630997 7.631012,-7.630997 4.214996,0 7.631992,3.417999 7.631992,7.630997"
         id="svg_20"
         style="fill:#ffffff" />
      <path
         d="m 130.23901,183.00299 c 0,4.215 -3.41799,7.633 -7.63299,7.633 -4.215,0 -7.63101,-3.418 -7.63101,-7.633 0,-4.215 3.41601,-7.63101 7.63101,-7.63101 4.21499,0 7.63299,3.41702 7.63299,7.63101"
         id="svg_21"
         style="fill:#ffffff" />
    </g>
  </g>
</svg>
